<?xml version="1.0" encoding="utf-8"?>
<!-- Generator: Adobe Illustrator 24.1.0, SVG Export Plug-In . SVG Version: 6.00 Build 0)  -->
<svg version="1.1" id="Layer_1" xmlns="http://www.w3.org/2000/svg" xmlns:xlink="http://www.w3.org/1999/xlink" x="0px" y="0px"
	 viewBox="0 0 358 48" style="enable-background:new 0 0 358 48;" xml:space="preserve">
<style type="text/css">
	.st0{enable-background:new    ;}
	.st1{fill:#3E3E3E;}
</style>
<g class="st0">
	<path class="st1" d="M7.2,36.8c-2.2-0.6-4.1-1.5-5.5-2.7l2.2-5c3.1,2.1,6.5,3.2,10.3,3.2c2,0,3.5-0.3,4.6-1
		c1.1-0.6,1.6-1.5,1.6-2.7c0-1-0.5-1.8-1.5-2.4c-1-0.6-2.7-1.1-5.2-1.7c-2.8-0.6-5-1.3-6.7-2.1c-1.7-0.8-2.9-1.8-3.6-3
		c-0.8-1.2-1.1-2.6-1.1-4.4c0-1.9,0.5-3.6,1.6-5.1c1.1-1.5,2.6-2.7,4.5-3.5c1.9-0.9,4.1-1.3,6.7-1.3c2.2,0,4.4,0.3,6.5,1
		c2.1,0.7,3.7,1.5,5,2.7l-2.2,5c-2.9-2.1-6-3.2-9.2-3.2c-1.8,0-3.3,0.4-4.3,1.1c-1.1,0.7-1.6,1.7-1.6,2.9c0,0.7,0.2,1.3,0.6,1.8
		s1.1,0.9,2,1.2c0.9,0.4,2.3,0.7,4,1.1c4.1,0.9,7,2.1,8.8,3.5c1.8,1.4,2.7,3.4,2.7,5.9c0,3-1.2,5.4-3.5,7.1
		c-2.3,1.7-5.5,2.6-9.7,2.6C11.7,37.7,9.4,37.4,7.2,36.8z"/>
	<path class="st1" d="M45.7,32.6l-0.4,4.9c-0.9,0.1-1.7,0.2-2.6,0.2c-3.4,0-5.8-0.7-7.4-2.2s-2.3-3.7-2.3-6.7v-8.5h-4.2v-5.1h4.2
		V8.8h6.8v6.5h5.5v5.1h-5.5v8.4c0,2.6,1.2,4,3.7,4C44.3,32.7,45,32.7,45.7,32.6z"/>
	<path class="st1" d="M53.2,36.3c-1.8-0.9-3.1-2.3-4.1-4c-1-1.7-1.4-3.8-1.4-6.1s0.5-4.4,1.4-6.1c1-1.7,2.3-3.1,4.1-4
		c1.8-0.9,3.8-1.4,6.2-1.4s4.4,0.5,6.2,1.4c1.8,0.9,3.1,2.3,4.1,4c1,1.7,1.4,3.8,1.4,6.1s-0.5,4.4-1.4,6.1c-1,1.7-2.3,3.1-4.1,4
		c-1.8,0.9-3.8,1.4-6.2,1.4S55,37.2,53.2,36.3z M64.3,26.2c0-2.1-0.4-3.7-1.3-4.8c-0.9-1-2.1-1.6-3.7-1.6c-3.3,0-5,2.1-5,6.3
		c0,4.2,1.7,6.3,5,6.3S64.3,30.4,64.3,26.2z"/>
	<path class="st1" d="M77.2,34.6c-2.1-2-3.1-4.8-3.1-8.3c0-2.3,0.5-4.3,1.5-6.1c1-1.8,2.4-3.1,4.2-4.1c1.8-1,3.9-1.4,6.3-1.4
		c1.6,0,3.2,0.2,4.7,0.7s2.7,1.2,3.6,2l-1.8,4.6c-0.9-0.7-1.8-1.2-2.9-1.6c-1-0.4-2-0.6-3-0.6c-1.8,0-3.1,0.5-4.1,1.6
		c-1,1.1-1.5,2.6-1.5,4.7s0.5,3.6,1.5,4.7c1,1.1,2.3,1.6,4.1,1.6c1,0,2-0.2,3-0.6c1-0.4,2-0.9,2.9-1.6l1.8,4.7c-1,0.8-2.2,1.5-3.8,2
		c-1.5,0.5-3.2,0.7-4.9,0.7C82.1,37.7,79.3,36.7,77.2,34.6z"/>
	<path class="st1" d="M112.7,37.3l-8.5-9.9v9.9h-6.8V5.6h6.8v19.1l8.1-9.4h8.1l-9.3,10.5l9.8,11.5H112.7z"/>
	<path class="st1" d="M152.2,17c1.6,1.6,2.4,4,2.4,7.2v13h-6.4v-3.3c-0.5,1.1-1.2,2-2.2,2.7c-1.1,0.6-2.3,1-3.7,1
		c-1.5,0-2.9-0.3-4.1-0.9s-2.2-1.4-2.9-2.5c-0.7-1.1-1.1-2.3-1.1-3.6c0-1.6,0.4-2.9,1.2-3.8c0.8-0.9,2.2-1.6,4-2
		c1.8-0.4,4.3-0.6,7.5-0.6h1.2v-0.8c0-1.3-0.3-2.2-0.9-2.8c-0.6-0.5-1.6-0.8-3-0.8c-1.1,0-2.3,0.2-3.6,0.6c-1.3,0.4-2.6,0.9-3.8,1.6
		l-1.8-4.5c1.3-0.8,2.8-1.4,4.7-2c1.8-0.5,3.6-0.8,5.2-0.8C148.2,14.7,150.6,15.5,152.2,17z M146.9,31.7c0.8-0.9,1.2-2,1.2-3.4v-0.8
		h-0.8c-2.4,0-4.1,0.2-5.1,0.6c-1,0.4-1.5,1.1-1.5,2.1c0,0.8,0.3,1.5,0.8,2c0.6,0.5,1.3,0.8,2.1,0.8C145,33,146.1,32.6,146.9,31.7z"
		/>
	<path class="st1" d="M179.4,17c1.3,1.5,1.9,3.9,1.9,7v13.3h-6.8v-13c0-1.5-0.3-2.6-0.8-3.3c-0.6-0.7-1.4-1-2.6-1
		c-1.4,0-2.5,0.5-3.4,1.4c-0.9,0.9-1.3,2.1-1.3,3.6v12.4h-6.8V15.2h6.6v3.1c0.8-1.2,1.8-2.1,3-2.7c1.2-0.6,2.6-0.9,4.2-0.9
		C176.2,14.7,178.1,15.5,179.4,17z"/>
	<path class="st1" d="M203.6,17c1.6,1.6,2.4,4,2.4,7.2v13h-6.4v-3.3c-0.5,1.1-1.2,2-2.2,2.7c-1.1,0.6-2.3,1-3.7,1
		c-1.5,0-2.9-0.3-4.1-0.9s-2.2-1.4-2.9-2.5c-0.7-1.1-1.1-2.3-1.1-3.6c0-1.6,0.4-2.9,1.2-3.8c0.8-0.9,2.2-1.6,4-2
		c1.8-0.4,4.3-0.6,7.5-0.6h1.2v-0.8c0-1.3-0.3-2.2-0.9-2.8c-0.6-0.5-1.6-0.8-3-0.8c-1.1,0-2.3,0.2-3.6,0.6c-1.3,0.4-2.6,0.9-3.8,1.6
		l-1.8-4.5c1.3-0.8,2.8-1.4,4.7-2c1.8-0.5,3.6-0.8,5.2-0.8C199.5,14.7,202,15.5,203.6,17z M198.2,31.7c0.8-0.9,1.2-2,1.2-3.4v-0.8
		h-0.8c-2.4,0-4.1,0.2-5.1,0.6c-1,0.4-1.5,1.1-1.5,2.1c0,0.8,0.3,1.5,0.8,2c0.6,0.5,1.3,0.8,2.1,0.8C196.4,33,197.4,32.6,198.2,31.7
		z"/>
	<path class="st1" d="M211,5.6h6.8v31.7H211V5.6z"/>
	<path class="st1" d="M245,15.3l-13.3,30.1h-6.9l4.2-9.3l-9.1-20.8h7.1l5.6,14l5.8-14H245z"/>
	<path class="st1" d="M249.7,37c-1.7-0.5-3.2-1.1-4.4-2l1.8-4.7c1.2,0.8,2.5,1.4,4,1.9c1.4,0.5,2.9,0.7,4.4,0.7c1,0,1.9-0.2,2.5-0.5
		c0.6-0.3,0.9-0.8,0.9-1.4c0-0.5-0.2-1-0.6-1.3c-0.4-0.3-1.2-0.6-2.3-0.8l-3.6-0.8c-2.1-0.5-3.7-1.2-4.7-2.2s-1.5-2.4-1.5-4.1
		c0-1.4,0.4-2.6,1.2-3.6c0.8-1,1.9-1.9,3.4-2.5c1.5-0.6,3.1-0.9,5-0.9c1.6,0,3.1,0.2,4.6,0.7c1.5,0.5,2.8,1.2,4,2l-1.8,4.5
		c-2.3-1.6-4.7-2.4-6.9-2.4c-1,0-1.9,0.2-2.5,0.5c-0.6,0.4-0.9,0.9-0.9,1.5c0,0.5,0.2,0.9,0.5,1.1c0.4,0.3,1,0.5,1.9,0.8l3.7,0.9
		c2.2,0.5,3.9,1.3,4.9,2.3s1.6,2.4,1.6,4.2c0,2.1-0.8,3.8-2.5,5c-1.7,1.2-4,1.8-7,1.8C253.3,37.7,251.4,37.5,249.7,37z"/>
	<path class="st1" d="M275.8,4.6V11h-7.3V4.6H275.8z M268.7,15.2h6.8v22.1h-6.8V15.2z"/>
	<path class="st1" d="M283.7,37c-1.7-0.5-3.2-1.1-4.4-2l1.8-4.7c1.2,0.8,2.5,1.4,4,1.9s2.9,0.7,4.4,0.7c1,0,1.9-0.2,2.5-0.5
		c0.6-0.3,0.9-0.8,0.9-1.4c0-0.5-0.2-1-0.6-1.3c-0.4-0.3-1.2-0.6-2.3-0.8l-3.6-0.8c-2.1-0.5-3.7-1.2-4.7-2.2c-1-1-1.5-2.4-1.5-4.1
		c0-1.4,0.4-2.6,1.2-3.6s1.9-1.9,3.4-2.5c1.5-0.6,3.1-0.9,5-0.9c1.6,0,3.1,0.2,4.6,0.7c1.5,0.5,2.8,1.2,4.1,2l-1.8,4.5
		c-2.3-1.6-4.7-2.4-6.9-2.4c-1.1,0-1.9,0.2-2.5,0.5c-0.6,0.4-0.9,0.9-0.9,1.5c0,0.5,0.2,0.9,0.5,1.1s1,0.5,1.9,0.8l3.7,0.9
		c2.2,0.5,3.9,1.3,4.9,2.3s1.6,2.4,1.6,4.2c0,2.1-0.8,3.8-2.5,5c-1.7,1.2-4,1.8-7,1.8C287.2,37.7,285.4,37.5,283.7,37z"/>
</g>
<path id="Path_26" class="st1" d="M350.5,9.6c1.8,1,4,0.4,5-1.4c1-1.8,0.4-4-1.4-5s-4-0.4-5,1.4c-0.6,1-0.6,2.3-0.1,3.4l-3.9,3
	c-1.2-0.8-2.8-0.8-4,0l-3.9-3.2c0.7-1.9-0.2-4-2.1-4.7s-4,0.2-4.7,2.1c-0.3,0.9-0.3,1.9,0.1,2.7l-5,5.3c-2-0.5-3.9,0.7-4.4,2.7
	c-0.5,2,0.7,3.9,2.7,4.4c2,0.5,3.9-0.7,4.4-2.7c0.3-1.1,0-2.4-0.8-3.3l4.6-4.8c1.2,0.8,2.8,0.7,4-0.1l3.8,3.1c-0.8,1.9,0.1,4,2,4.8
	c1.9,0.8,4-0.1,4.8-2c0.3-0.9,0.4-1.8,0-2.7L350.5,9.6z M352.3,4.9c0.8,0,1.5,0.7,1.5,1.5c0,0.8-0.7,1.5-1.5,1.5
	c-0.8,0-1.5-0.7-1.5-1.5C350.9,5.6,351.5,4.9,352.3,4.9L352.3,4.9z M324.5,18.2c-0.8,0-1.5-0.7-1.5-1.5s0.7-1.5,1.5-1.5
	c0.8,0,1.5,0.7,1.5,1.5c0,0,0,0,0,0C326,17.6,325.3,18.2,324.5,18.2z M333.8,7.9c-0.8,0-1.5-0.7-1.5-1.5S333,5,333.8,5
	c0.8,0,1.5,0.7,1.5,1.5c0,0,0,0,0,0C335.3,7.3,334.6,7.9,333.8,7.9z M343.1,15.4c-0.8,0-1.5-0.7-1.5-1.5s0.7-1.5,1.5-1.5
	c0.8,0,1.5,0.7,1.5,1.5C344.5,14.8,343.9,15.4,343.1,15.4L343.1,15.4z"/>
<path id="Path_27" class="st1" d="M352.3,16.9c-2,0-3.6,1.6-3.6,3.6V40h7.1V20.4C355.8,18.4,354.2,16.9,352.3,16.9z M353.7,37.8
	h-2.8V20.4c0-0.8,0.6-1.4,1.4-1.4s1.4,0.6,1.4,1.4V37.8L353.7,37.8z"/>
<path id="Path_28" class="st1" d="M343.1,25.8c-2,0-3.6,1.6-3.6,3.6V40h7.1V29.4C346.6,27.4,345,25.8,343.1,25.8z M344.4,37.8h-2.8
	v-8.5c0-0.8,0.6-1.4,1.4-1.4s1.4,0.6,1.4,1.4V37.8L344.4,37.8z"/>
<path id="Path_29" class="st1" d="M333.7,19.8c-2,0-3.6,1.6-3.6,3.6V40h7.1V23.3C337.3,21.4,335.7,19.8,333.7,19.8z M335.1,37.8
	h-2.8V23.3c0-0.8,0.6-1.4,1.4-1.4c0.8,0,1.4,0.6,1.4,1.4V37.8L335.1,37.8z"/>
<path id="Path_30" class="st1" d="M324.5,29.1c-2,0-3.6,1.6-3.6,3.6V40h7.1v-7.4C328.1,30.7,326.5,29.1,324.5,29.1z M325.9,37.8
	h-2.8v-5.2c0-0.8,0.6-1.4,1.4-1.4s1.4,0.6,1.4,1.4L325.9,37.8z"/>
</svg>
